<svg id="Layer_1" data-name="Layer 1" xmlns="http://www.w3.org/2000/svg" viewBox="0 0 982.45 666.12"><defs><style>.cls-1{fill:#fff;}.cls-2{fill:#404452;}.cls-3{fill:#27b5ea;}.cls-4{fill:#68de7a;}.cls-5{fill:#e6f3f3;stroke:#1d0d4c;}.cls-10,.cls-11,.cls-12,.cls-5,.cls-9{stroke-miterlimit:10;}.cls-6{fill:#6e6e80;}.cls-7{fill:#e6a2e4;}.cls-8{fill:#eff7f8;}.cls-10,.cls-11,.cls-12,.cls-9{fill:none;}.cls-9{stroke:#ef4146;}.cls-10,.cls-11,.cls-9{stroke-width:2px;}.cls-10{stroke:#27b5ea;}.cls-10,.cls-12{stroke-dasharray:6;}.cls-11{stroke:#6e6e80;}.cls-12{stroke:#e6a2e4;stroke-width:3px;}</style></defs><title>Artboard 5</title><rect class="cls-1" width="982.45" height="310.99" rx="8" ry="8"/><path class="cls-2" d="M51.08,48.75H45V45.21H61.4v3.54h-6V66.58H51.08Z"/><path class="cls-2" d="M62.41,50.71h3.93v3.08c.52-2.38,2.39-3.2,4.77-3.2h.48v4.12h-.85c-2.72,0-4.18,1.34-4.18,4.54v7.33H62.41Z"/><path class="cls-2" d="M73.09,62c0-3.45,2.6-5,6.41-5a6.38,6.38,0,0,1,4,1.35V56.14a2.52,2.52,0,0,0-2.75-2.56A2.84,2.84,0,0,0,78,55.07H74.19c.92-3.08,3.39-4.73,6.81-4.73,4,0,6.68,2.41,6.68,6.1V66.58h-4V65.11c-.73,1.07-2.75,1.83-4.58,1.83C75.53,66.94,73.09,65.08,73.09,62Zm10.44-.15c0-1.41-1.37-2.23-3.24-2.23s-3.17.79-3.17,2.26,1.31,2.32,3,2.32S83.53,63.19,83.53,61.85Z"/><path class="cls-2" d="M94,44.15a2.41,2.41,0,1,1-2.41,2.41A2.34,2.34,0,0,1,94,44.15Zm-2.08,6.56H96V66.58H91.89Z"/><path class="cls-2" d="M100.41,50.71h4V52.6c.79-1.47,2.41-2.26,4.66-2.26,3.45,0,5.62,2.26,5.62,6.07V66.58h-4.15V57.09c0-1.84-.88-3.15-2.9-3.15-1.86,0-3,1.1-3,3.24v9.4h-4.15Z"/><path class="cls-2" d="M124.61,59.77V57.51c0-4.06,2.72-7.17,7.48-7.17s7.48,3.11,7.48,7.17v2.26c0,4.06-2.72,7.17-7.48,7.17S124.61,63.83,124.61,59.77Zm10.93-2.53c0-2.08-1.1-3.63-3.45-3.63s-3.45,1.55-3.45,3.63v2.81c0,2.07,1.1,3.63,3.45,3.63s3.45-1.56,3.45-3.63Z"/><path class="cls-2" d="M143,50.71h4V52.6c.8-1.47,2.41-2.26,4.67-2.26,3.45,0,5.62,2.26,5.62,6.07V66.58h-4.15V57.09c0-1.84-.89-3.15-2.9-3.15-1.86,0-3,1.1-3,3.24v9.4H143Z"/><path class="cls-2" d="M169.81,71.89l1.59-5.37-5.49-15.81h4.15l3.42,11.38,3.23-11.38h4.12L173.9,71.89Z"/><path class="cls-2" d="M182.33,59.77V57.51c0-4.06,2.71-7.17,7.48-7.17s7.47,3.11,7.47,7.17v2.26c0,4.06-2.71,7.17-7.47,7.17S182.33,63.83,182.33,59.77Zm10.92-2.53c0-2.08-1.09-3.63-3.44-3.63s-3.45,1.55-3.45,3.63v2.81c0,2.07,1.1,3.63,3.45,3.63s3.44-1.56,3.44-3.63Z"/><path class="cls-2" d="M214.65,66.58h-4v-1.9a5.2,5.2,0,0,1-4.61,2.26c-3.57,0-5.55-2.47-5.55-6.07V50.71h4.15v9.58c0,2,1,3.17,2.81,3.17s3-1.22,3-3.2V50.71h4.15Z"/><path class="cls-2" d="M218.74,50.71h3.94v3.08c.52-2.38,2.38-3.2,4.76-3.2h.49v4.12h-.86c-2.71,0-4.18,1.34-4.18,4.54v7.33h-4.15Z"/><path class="cls-2" d="M237.48,44.3h4.15v8.3a5.06,5.06,0,0,1,4.49-2.26c3.45,0,5.61,2.32,5.61,6.07V66.58h-4.15V57.09c0-1.84-.88-3.15-2.9-3.15-1.86,0-3.05,1.1-3.05,3.24v9.4h-4.15Z"/><path class="cls-2" d="M255,62c0-3.45,2.6-5,6.41-5a6.38,6.38,0,0,1,4,1.35V56.14a2.52,2.52,0,0,0-2.75-2.56A2.84,2.84,0,0,0,260,55.07H256.1c.92-3.08,3.39-4.73,6.81-4.73,4,0,6.68,2.41,6.68,6.1V66.58h-4V65.11c-.73,1.07-2.74,1.83-4.58,1.83C257.44,66.94,255,65.08,255,62Zm10.44-.15c0-1.41-1.37-2.23-3.24-2.23s-3.17.79-3.17,2.26,1.31,2.32,3.05,2.32S265.44,63.19,265.44,61.85Z"/><path class="cls-2" d="M273.53,50.71h3.94v3.08c.51-2.38,2.38-3.2,4.76-3.2h.48v4.12h-.85c-2.72,0-4.18,1.34-4.18,4.54v7.33h-4.15Z"/><path class="cls-2" d="M284.55,60V57.33c0-3.81,2.38-7,6.65-7a5.51,5.51,0,0,1,4.55,2.08V44.3h4.15V66.58h-4v-1.9a5.42,5.42,0,0,1-4.7,2.26C287,66.94,284.55,63.71,284.55,60Zm11.2-.18V57.45a3.44,3.44,0,0,0-3.48-3.75c-2.35,0-3.57,1.59-3.57,3.81v2.26c0,2.11,1.13,3.82,3.54,3.82A3.51,3.51,0,0,0,295.75,59.77Z"/><path class="cls-2" d="M321.32,66.58h-3.87L314,55.65l-3.48,10.93h-3.87L302.5,50.71h4l2.32,10.65,3.24-10.65h3.78l3.24,10.65,2.32-10.65h4Z"/><path class="cls-2" d="M326.64,62c0-3.45,2.59-5,6.41-5a6.41,6.41,0,0,1,4,1.35V56.14a2.52,2.52,0,0,0-2.75-2.56,2.85,2.85,0,0,0-2.75,1.49h-3.84c.91-3.08,3.38-4.73,6.8-4.73,4,0,6.69,2.41,6.69,6.1V66.58h-4V65.11c-.73,1.07-2.75,1.83-4.58,1.83C329.08,66.94,326.64,65.08,326.64,62Zm10.44-.15c0-1.41-1.38-2.23-3.24-2.23s-3.17.79-3.17,2.26,1.31,2.32,3.05,2.32S337.08,63.19,337.08,61.85Z"/><path class="cls-2" d="M345.17,50.71h3.93v3.08c.52-2.38,2.38-3.2,4.76-3.2h.49v4.12h-.85c-2.72,0-4.18,1.34-4.18,4.54v7.33h-4.15Z"/><path class="cls-2" d="M356.18,59.86V57.7c0-4.31,2.57-7.36,7.33-7.36s7.08,3.14,7.08,7v2.78H360.21v.39c0,1.86,1,3.48,3.36,3.48a3.22,3.22,0,0,0,3.26-2h3.64c-.55,2.9-3.39,5-6.9,5C359.08,66.94,356.18,64.32,356.18,59.86Zm4-2.71h6.56v-.4c0-2-1-3.48-3.26-3.48s-3.3,1.59-3.3,3.72Z"/><rect class="cls-3" x="328.08" y="141.8" width="235" height="86" rx="4" ry="4"/><path class="cls-1" d="M382.86,194.7H380.6V177.91l-5.89,11.63h-2.26l-5.89-11.63V194.7H364.3V173.33h2.23l7.05,14.1,7.05-14.1h2.23Z"/><path class="cls-1" d="M387.35,188.26v-2.51c0-4.24,2.41-7.05,6.8-7.05s6.62,3,6.62,6.81v2.32h-11.2v.55c0,2.71,1.41,4.91,4.67,4.91a4.15,4.15,0,0,0,4.31-3h2.07c-.52,2.81-3.11,4.79-6.38,4.79C390.19,195.06,387.35,192.47,387.35,188.26Zm2.22-2.2h9v-.73c0-2.78-1.41-4.86-4.46-4.86-3.35,0-4.58,2.23-4.58,5.1Z"/><path class="cls-1" d="M410.45,194.7c-3,0-4.24-1.5-4.24-4.15V181h-2.66v-1.89h2.66v-4.49h2.32v4.49h4V181h-4v9.59c0,1.58.58,2.25,2.32,2.25h1.55v1.9Z"/><path class="cls-1" d="M426.75,194.7v-2c-.67,1.1-2.78,2.32-5.37,2.32-3.69,0-5.92-2.07-5.92-4.91,0-3,2.47-4.88,6.19-4.88a6.83,6.83,0,0,1,5,1.95v-2.9a3.62,3.62,0,0,0-3.91-3.78,3.94,3.94,0,0,0-3.9,2.35h-2.14a5.91,5.91,0,0,1,6.07-4.19c3.88,0,6.2,2.54,6.2,5.62V194.7Zm-.09-4.58c0-2-2.32-3.33-4.67-3.33-2.59,0-4.33,1.22-4.33,3.39s1.8,3.39,4.21,3.39S426.66,192.13,426.66,190.12Z"/><path class="cls-1" d="M433.89,172.42h2.32V194.7h-2.32Z"/><path class="cls-1" d="M440.55,188.26v-2.51c0-4.24,2.41-7.05,6.8-7.05s6.62,3,6.62,6.81v2.32h-11.2v.55c0,2.71,1.41,4.91,4.67,4.91a4.15,4.15,0,0,0,4.31-3h2.07c-.52,2.81-3.11,4.79-6.38,4.79C443.39,195.06,440.55,192.47,440.55,188.26Zm2.22-2.2h9v-.73c0-2.78-1.41-4.86-4.46-4.86-3.35,0-4.58,2.23-4.58,5.1Z"/><path class="cls-1" d="M468.72,194.7v-2c-.67,1.1-2.78,2.32-5.37,2.32-3.7,0-5.92-2.07-5.92-4.91,0-3,2.47-4.88,6.19-4.88a6.85,6.85,0,0,1,5,1.95v-2.9a3.62,3.62,0,0,0-3.91-3.78,4,4,0,0,0-3.91,2.35h-2.13a5.91,5.91,0,0,1,6.07-4.19c3.88,0,6.19,2.54,6.19,5.62V194.7Zm-.09-4.58c0-2-2.32-3.33-4.67-3.33-2.6,0-4.34,1.22-4.34,3.39s1.8,3.39,4.21,3.39S468.63,192.13,468.63,190.12Z"/><path class="cls-1" d="M475.71,179.07h2.17v3.6c.57-2.41,2.25-3.69,5.09-3.69h.37v2.17h-.46c-3,0-4.85,1.95-4.85,5.89v7.66h-2.32Z"/><path class="cls-1" d="M486.48,179.07h2.2v2.66c.73-1.77,2.5-3,5.22-3,3.51,0,5.74,2.38,5.74,6.14v9.86h-2.32v-9.53c0-2.65-1.19-4.45-4-4.45-2.56,0-4.52,1.55-4.52,4.79v9.19h-2.32Z"/><path class="cls-1" d="M503.67,188.26v-2.51c0-4.24,2.41-7.05,6.8-7.05s6.62,3,6.62,6.81v2.32h-11.2v.55c0,2.71,1.41,4.91,4.67,4.91a4.15,4.15,0,0,0,4.31-3h2.07c-.52,2.81-3.11,4.79-6.38,4.79C506.5,195.06,503.67,192.47,503.67,188.26Zm2.22-2.2h9v-.73c0-2.78-1.41-4.86-4.46-4.86-3.36,0-4.58,2.23-4.58,5.1Z"/><path class="cls-1" d="M521.34,179.07h2.17v3.6c.58-2.41,2.25-3.69,5.09-3.69H529v2.17h-.46c-3,0-4.85,1.95-4.85,5.89v7.66h-2.32Z"/><rect class="cls-4" x="673.66" y="141.8" width="235" height="86" rx="4" ry="4"/><path class="cls-1" d="M706.9,173.33h13.82v2H709.28v7.87h10.56v2H709.28v9.53H706.9Z"/><path class="cls-1" d="M734.25,194.7v-2c-.68,1.1-2.78,2.32-5.38,2.32-3.69,0-5.92-2.07-5.92-4.91,0-3,2.48-4.88,6.2-4.88a6.8,6.8,0,0,1,5,1.95v-2.9a3.61,3.61,0,0,0-3.9-3.78,3.94,3.94,0,0,0-3.91,2.35h-2.13a5.91,5.91,0,0,1,6.07-4.19c3.87,0,6.19,2.54,6.19,5.62V194.7Zm-.1-4.58c0-2-2.32-3.33-4.67-3.33-2.59,0-4.33,1.22-4.33,3.39s1.8,3.39,4.21,3.39S734.15,192.13,734.15,190.12Z"/><path class="cls-1" d="M740.5,190.15V190h2.11v.09c0,1.95,1.83,3.23,4.39,3.23s4.15-.94,4.15-3a2.18,2.18,0,0,0-1.95-2.16l-4.64-1.07c-2.32-.52-3.66-1.93-3.66-4,0-2.93,2.47-4.46,5.92-4.46,3.27,0,5.8,2,5.8,4.89v.15h-2.11v-.09c0-1.92-1.4-3.21-3.72-3.21-2.17,0-3.75.92-3.75,2.66a1.89,1.89,0,0,0,1.64,2l4.8,1.13c2.41.58,3.84,1.77,3.84,4,0,2.78-2.68,4.79-6.35,4.79S740.5,193.17,740.5,190.15Z"/><path class="cls-1" d="M762.48,194.7c-3,0-4.24-1.5-4.24-4.15V181h-2.66v-1.89h2.66v-4.49h2.32v4.49h4V181h-4v9.59c0,1.58.58,2.25,2.32,2.25h1.55v1.9Z"/><path class="cls-1" d="M775.36,173.33h2.38v19.38h11v2H775.36Z"/><path class="cls-1" d="M791.08,188.26v-2.51c0-4.24,2.41-7.05,6.8-7.05s6.63,3,6.63,6.81v2.32h-11.2v.55c0,2.71,1.4,4.91,4.67,4.91a4.14,4.14,0,0,0,4.3-3h2.07c-.52,2.81-3.11,4.79-6.37,4.79C793.92,195.06,791.08,192.47,791.08,188.26Zm2.23-2.2h9v-.73c0-2.78-1.4-4.86-4.46-4.86-3.35,0-4.57,2.23-4.57,5.1Z"/><path class="cls-1" d="M819.25,194.7v-2c-.67,1.1-2.78,2.32-5.37,2.32-3.7,0-5.92-2.07-5.92-4.91,0-3,2.47-4.88,6.19-4.88a6.85,6.85,0,0,1,5,1.95v-2.9a3.62,3.62,0,0,0-3.91-3.78,4,4,0,0,0-3.91,2.35h-2.13a5.91,5.91,0,0,1,6.07-4.19c3.88,0,6.2,2.54,6.2,5.62V194.7Zm-.09-4.58c0-2-2.32-3.33-4.67-3.33-2.6,0-4.34,1.22-4.34,3.39s1.81,3.39,4.22,3.39S819.16,192.13,819.16,190.12Z"/><path class="cls-1" d="M826.24,179.07h2.17v3.6c.58-2.41,2.25-3.69,5.09-3.69h.37v2.17h-.46c-3,0-4.85,1.95-4.85,5.89v7.66h-2.32Z"/><path class="cls-1" d="M837,179.07h2.2v2.66c.73-1.77,2.5-3,5.22-3,3.51,0,5.74,2.38,5.74,6.14v9.86h-2.32v-9.53c0-2.65-1.19-4.45-4-4.45-2.56,0-4.52,1.55-4.52,4.79v9.19H837Z"/><path class="cls-1" d="M854.2,188.26v-2.51c0-4.24,2.41-7.05,6.8-7.05s6.63,3,6.63,6.81v2.32h-11.2v.55c0,2.71,1.4,4.91,4.67,4.91a4.14,4.14,0,0,0,4.3-3h2.07c-.52,2.81-3.11,4.79-6.37,4.79C857,195.06,854.2,192.47,854.2,188.26Zm2.23-2.2h9v-.73c0-2.78-1.4-4.86-4.46-4.86-3.35,0-4.57,2.23-4.57,5.1Z"/><path class="cls-1" d="M871.87,179.07H874v3.6c.58-2.41,2.25-3.69,5.09-3.69h.37v2.17H879c-3,0-4.85,1.95-4.85,5.89v7.66h-2.32Z"/><rect class="cls-5" x="73.5" y="114.57" width="106.16" height="79.62"/><rect class="cls-5" x="82.21" y="123.28" width="106.16" height="79.62"/><rect class="cls-5" x="90.91" y="131.99" width="106.16" height="79.62"/><rect class="cls-5" x="99.62" y="140.69" width="106.16" height="79.62"/><rect class="cls-5" x="108.33" y="149.4" width="106.16" height="79.62"/><path class="cls-6" d="M56.24,249.51H49.71v-2H65.15v2H58.62v19.38H56.24Z"/><path class="cls-6" d="M66.64,253.27h2.17v3.6c.58-2.41,2.26-3.7,5.1-3.7h.36v2.17h-.45c-3,0-4.86,2-4.86,5.89v7.66H66.64Z"/><path class="cls-6" d="M87.09,268.89v-1.95c-.67,1.1-2.77,2.32-5.37,2.32-3.69,0-5.92-2.08-5.92-4.92,0-3,2.47-4.88,6.2-4.88a6.84,6.84,0,0,1,5,2v-2.89a3.62,3.62,0,0,0-3.9-3.79,4,4,0,0,0-3.91,2.35H77.05a5.92,5.92,0,0,1,6.08-4.18c3.87,0,6.19,2.53,6.19,5.62v10.37ZM87,264.31c0-1.95-2.32-3.32-4.67-3.32-2.59,0-4.33,1.22-4.33,3.38s1.8,3.39,4.21,3.39S87,266.33,87,264.31Z"/><path class="cls-6" d="M95.4,247.74a1.41,1.41,0,1,1-1.47,1.41A1.36,1.36,0,0,1,95.4,247.74Zm-1.16,5.53h2.32v15.62H94.24Z"/><path class="cls-6" d="M101.65,253.27h2.2v2.65c.73-1.77,2.5-3,5.22-3,3.51,0,5.74,2.38,5.74,6.13v9.86h-2.32v-9.52c0-2.66-1.19-4.46-4-4.46-2.56,0-4.52,1.56-4.52,4.8v9.18h-2.32Z"/><path class="cls-6" d="M120.91,247.74a1.41,1.41,0,1,1-1.46,1.41A1.37,1.37,0,0,1,120.91,247.74Zm-1.16,5.53h2.32v15.62h-2.32Z"/><path class="cls-6" d="M127.17,253.27h2.2v2.65c.73-1.77,2.5-3,5.22-3,3.5,0,5.73,2.38,5.73,6.13v9.86H138v-9.52c0-2.66-1.19-4.46-4-4.46-2.57,0-4.52,1.56-4.52,4.8v9.18h-2.32Z"/><path class="cls-6" d="M144.63,270.57h2.29c.85,1.49,2.35,2.17,4.48,2.17,2.72,0,4.58-1.53,4.58-3.91v-3.54c-.49,1.43-2.62,3-5.25,3a6.09,6.09,0,0,1-6.38-6.38v-2.59a6,6,0,0,1,6.41-6.38,5.64,5.64,0,0,1,5.31,3v-2.59h2.23v15.62c0,3.24-2.93,5.68-6.9,5.68C148.29,274.57,145.48,273.13,144.63,270.57ZM156,261.63v-2a4.71,4.71,0,0,0-4.7-4.82c-3.05,0-4.64,1.68-4.64,4.67v2.23c0,2.93,1.56,4.67,4.55,4.67A4.55,4.55,0,0,0,156,261.63Z"/><path class="cls-6" d="M170.27,247.53h2.38v19.38H183.6v2H170.27Z"/><path class="cls-6" d="M186,262.45V260c0-4.24,2.41-7,6.8-7s6.62,3,6.62,6.81V262h-11.2v.55c0,2.72,1.41,4.92,4.67,4.92a4.15,4.15,0,0,0,4.31-3h2.07c-.52,2.8-3.11,4.79-6.38,4.79C188.82,269.26,186,266.66,186,262.45Zm2.22-2.2h9v-.73c0-2.77-1.41-4.85-4.46-4.85-3.36,0-4.58,2.23-4.58,5.1Z"/><path class="cls-6" d="M209.85,268.89h-2.44l-5.74-15.62H204l4.67,13.3,4.67-13.3h2.29Z"/><path class="cls-6" d="M217.73,262.45V260c0-4.24,2.41-7,6.8-7s6.63,3,6.63,6.81V262H220v.55c0,2.72,1.4,4.92,4.67,4.92a4.14,4.14,0,0,0,4.3-3H231c-.51,2.8-3.11,4.79-6.37,4.79C220.57,269.26,217.73,266.66,217.73,262.45Zm2.23-2.2h9v-.73c0-2.77-1.4-4.85-4.46-4.85-3.35,0-4.57,2.23-4.57,5.1Z"/><path class="cls-6" d="M235.55,246.61h2.32v22.28h-2.32Z"/><path class="cls-6" d="M242.24,264.34v-.15h2.1v.09c0,2,1.83,3.24,4.4,3.24,2.41,0,4.15-.95,4.15-3a2.19,2.19,0,0,0-1.95-2.17l-4.64-1.07c-2.32-.52-3.67-1.92-3.67-4,0-2.93,2.48-4.46,5.92-4.46,3.27,0,5.8,2,5.8,4.88v.15h-2.1v-.09c0-1.92-1.41-3.2-3.73-3.2-2.16,0-3.75.92-3.75,2.65a1.91,1.91,0,0,0,1.65,2l4.79,1.13c2.41.58,3.84,1.77,3.84,4,0,2.77-2.68,4.79-6.34,4.79S242.24,267.37,242.24,264.34Z"/><polygon class="cls-7" points="281.05 165.57 264.12 165.57 278.06 179.5 239.99 179.5 239.99 191.5 278.06 191.5 264.12 205.44 281.05 205.44 300.99 185.5 281.05 165.57"/><polygon class="cls-7" points="628.93 165.57 612.01 165.57 625.95 179.5 587.88 179.5 587.88 191.5 625.95 191.5 612.01 205.44 628.93 205.44 648.87 185.5 628.93 165.57"/><rect class="cls-1" y="353.99" width="982.45" height="310.99" rx="8" ry="8"/><path class="cls-2" d="M51.08,402.75H45V399.2H61.4v3.55h-6v17.82H51.08Z"/><path class="cls-2" d="M60.94,413.85v-2.16c0-4.31,2.57-7.36,7.33-7.36s7.08,3.15,7.08,7v2.78H65v.39c0,1.87,1,3.48,3.36,3.48a3.22,3.22,0,0,0,3.26-2h3.64c-.55,2.9-3.39,5-6.9,5C63.84,420.93,60.94,418.31,60.94,413.85Zm4-2.71h6.56v-.4c0-2-1-3.48-3.26-3.48S65,408.85,65,411Z"/><path class="cls-2" d="M78.07,415.87v-.28h3.66v.22c0,1.37,1.25,2.19,3.2,2.19,1.74,0,3-.7,3-1.92,0-.76-.39-1.22-1.31-1.43l-4.7-1.07c-2.38-.55-3.63-1.77-3.63-4.18,0-3.27,2.66-5.07,6.41-5.07S91,406.25,91,409.4v.24H87.37v-.27c0-1.22-.76-2.08-2.59-2.08s-2.59.61-2.59,1.74c0,.8.39,1.16,1.22,1.34l4.82,1.19c2.35.58,3.54,1.84,3.54,4.06,0,3.09-2.93,5.31-6.87,5.31S78.07,419.25,78.07,415.87Z"/><path class="cls-2" d="M95.68,416.05v-8H93.42V404.7h2.26v-4.34h4.18v4.34h3.39v3.36H99.86v7.69c0,1,.39,1.46,1.49,1.46H103v3.36h-2.87C97.11,420.57,95.68,418.86,95.68,416.05Z"/><path class="cls-2" d="M112.37,413.76V411.5c0-4.06,2.72-7.17,7.48-7.17s7.48,3.11,7.48,7.17v2.26c0,4.06-2.72,7.17-7.48,7.17S112.37,417.82,112.37,413.76Zm10.93-2.53c0-2.08-1.1-3.63-3.45-3.63s-3.45,1.55-3.45,3.63V414c0,2.07,1.1,3.63,3.45,3.63s3.45-1.56,3.45-3.63Z"/><path class="cls-2" d="M130.72,404.7h4v1.89c.8-1.46,2.41-2.26,4.67-2.26,3.45,0,5.62,2.26,5.62,6.08v10.16h-4.15v-9.49c0-1.83-.89-3.15-2.9-3.15-1.86,0-3,1.1-3,3.24v9.4h-4.15Z"/><path class="cls-2" d="M154.92,413.76V411.5c0-4.06,2.72-7.17,7.48-7.17s7.47,3.11,7.47,7.17v2.26c0,4.06-2.71,7.17-7.47,7.17S154.92,417.82,154.92,413.76Zm10.93-2.53c0-2.08-1.1-3.63-3.45-3.63s-3.45,1.55-3.45,3.63V414c0,2.07,1.1,3.63,3.45,3.63s3.45-1.56,3.45-3.63Z"/><path class="cls-2" d="M187.24,420.57h-4v-1.89a5.21,5.21,0,0,1-4.6,2.25c-3.58,0-5.56-2.47-5.56-6.07V404.7h4.15v9.58c0,2,1,3.17,2.81,3.17s3-1.22,3-3.2V404.7h4.15Z"/><path class="cls-2" d="M191.33,404.7h3.94v3.08c.52-2.38,2.38-3.2,4.76-3.2h.49v4.12h-.86c-2.71,0-4.18,1.34-4.18,4.54v7.33h-4.15Z"/><path class="cls-2" d="M210.07,398.29h4.15v8.3a5.08,5.08,0,0,1,4.49-2.26c3.45,0,5.62,2.32,5.62,6.08v10.16h-4.16v-9.49c0-1.83-.88-3.15-2.89-3.15s-3.06,1.1-3.06,3.24v9.4h-4.15Z"/><path class="cls-2" d="M227.59,416c0-3.45,2.6-5,6.41-5a6.38,6.38,0,0,1,4,1.35v-2.17a2.52,2.52,0,0,0-2.75-2.56,2.84,2.84,0,0,0-2.74,1.49h-3.85c.92-3.08,3.39-4.73,6.81-4.73,4,0,6.68,2.41,6.68,6.11v10.13h-4V419.1c-.73,1.07-2.74,1.83-4.57,1.83C230,420.93,227.59,419.07,227.59,416Zm10.44-.15c0-1.41-1.37-2.23-3.24-2.23s-3.17.79-3.17,2.26,1.31,2.32,3,2.32S238,417.18,238,415.84Z"/><path class="cls-2" d="M246.12,404.7h3.94v3.08c.52-2.38,2.38-3.2,4.76-3.2h.49v4.12h-.86c-2.71,0-4.18,1.34-4.18,4.54v7.33h-4.15Z"/><path class="cls-2" d="M257.14,414v-2.63c0-3.81,2.38-7,6.65-7a5.51,5.51,0,0,1,4.55,2.08v-8.12h4.15v22.28h-4v-1.89a5.44,5.44,0,0,1-4.7,2.25C259.55,420.93,257.14,417.7,257.14,414Zm11.2-.19v-2.32a3.44,3.44,0,0,0-3.48-3.75c-2.35,0-3.57,1.59-3.57,3.81v2.26c0,2.11,1.13,3.82,3.54,3.82A3.51,3.51,0,0,0,268.34,413.76Z"/><path class="cls-2" d="M293.92,420.57H290l-3.48-10.93-3.48,10.93h-3.87l-4.12-15.87h4l2.32,10.65,3.24-10.65h3.78l3.24,10.65L294,404.7h4Z"/><path class="cls-2" d="M299.23,416c0-3.45,2.59-5,6.41-5a6.41,6.41,0,0,1,4,1.35v-2.17a2.52,2.52,0,0,0-2.75-2.56,2.87,2.87,0,0,0-2.75,1.49h-3.84c.91-3.08,3.39-4.73,6.8-4.73,4,0,6.69,2.41,6.69,6.11v10.13h-4V419.1c-.73,1.07-2.75,1.83-4.58,1.83C301.67,420.93,299.23,419.07,299.23,416Zm10.44-.15c0-1.41-1.38-2.23-3.24-2.23s-3.17.79-3.17,2.26,1.31,2.32,3.05,2.32S309.67,417.18,309.67,415.84Z"/><path class="cls-2" d="M317.76,404.7h3.93v3.08c.52-2.38,2.38-3.2,4.76-3.2h.49v4.12h-.85c-2.72,0-4.18,1.34-4.18,4.54v7.33h-4.15Z"/><path class="cls-2" d="M328.78,413.85v-2.16c0-4.31,2.56-7.36,7.32-7.36s7.08,3.15,7.08,7v2.78H332.8v.39c0,1.87.95,3.48,3.36,3.48a3.25,3.25,0,0,0,3.27-2h3.63c-.55,2.9-3.39,5-6.9,5C331.67,420.93,328.78,418.31,328.78,413.85Zm4-2.71h6.57v-.4c0-2-1-3.48-3.27-3.48-2.38,0-3.3,1.59-3.3,3.72Z"/><rect class="cls-4" x="328.08" y="495.79" width="235" height="86" rx="4" ry="4"/><path class="cls-1" d="M360.33,527.32h13.83v2H362.71v7.87h10.56v2H362.71v9.53h-2.38Z"/><path class="cls-1" d="M387.68,548.69v-2c-.67,1.1-2.78,2.32-5.37,2.32-3.69,0-5.92-2.07-5.92-4.91,0-3,2.47-4.88,6.19-4.88a6.83,6.83,0,0,1,5,2v-2.9a3.61,3.61,0,0,0-3.91-3.78,3.94,3.94,0,0,0-3.9,2.35h-2.14a5.9,5.9,0,0,1,6.07-4.18c3.88,0,6.2,2.53,6.2,5.61v10.38Zm-.09-4.58c0-2-2.32-3.33-4.67-3.33-2.59,0-4.33,1.22-4.33,3.39s1.8,3.39,4.21,3.39S387.59,546.12,387.59,544.11Z"/><path class="cls-1" d="M393.94,544.14V544h2.11v.09c0,1.95,1.83,3.23,4.39,3.23s4.15-.94,4.15-3a2.18,2.18,0,0,0-1.95-2.16L398,541.12c-2.32-.52-3.66-1.92-3.66-4,0-2.93,2.47-4.45,5.92-4.45,3.26,0,5.8,2,5.8,4.88v.15H404v-.09c0-1.92-1.4-3.21-3.72-3.21s-3.76.92-3.76,2.66a1.89,1.89,0,0,0,1.65,2l4.79,1.13c2.41.58,3.85,1.77,3.85,4,0,2.78-2.69,4.79-6.35,4.79S393.94,547.16,393.94,544.14Z"/><path class="cls-1" d="M415.91,548.69c-3,0-4.24-1.5-4.24-4.15V535H409v-1.89h2.65v-4.48H414v4.48h4V535h-4v9.59c0,1.58.58,2.25,2.32,2.25h1.56v1.9Z"/><path class="cls-1" d="M428.8,527.32h2.38V546.7h10.95v2H428.8Z"/><path class="cls-1" d="M444.51,542.25v-2.5c0-4.25,2.42-7,6.81-7s6.62,3,6.62,6.8v2.32h-11.2v.55c0,2.72,1.41,4.91,4.67,4.91a4.13,4.13,0,0,0,4.3-3h2.08c-.52,2.81-3.11,4.79-6.38,4.79C447.35,549.05,444.51,546.46,444.51,542.25Zm2.23-2.2h9v-.73c0-2.78-1.4-4.85-4.45-4.85-3.36,0-4.58,2.22-4.58,5.09Z"/><path class="cls-1" d="M472.68,548.69v-2c-.67,1.1-2.77,2.32-5.37,2.32-3.69,0-5.92-2.07-5.92-4.91,0-3,2.47-4.88,6.2-4.88a6.8,6.8,0,0,1,5,2v-2.9a3.61,3.61,0,0,0-3.9-3.78,3.94,3.94,0,0,0-3.91,2.35h-2.14a5.92,5.92,0,0,1,6.08-4.18c3.87,0,6.19,2.53,6.19,5.61v10.38Zm-.09-4.58c0-2-2.32-3.33-4.67-3.33-2.59,0-4.33,1.22-4.33,3.39s1.8,3.39,4.21,3.39S472.59,546.12,472.59,544.11Z"/><path class="cls-1" d="M479.68,533.06h2.16v3.6c.58-2.41,2.26-3.69,5.1-3.69h.37v2.17h-.46c-3,0-4.86,2-4.86,5.89v7.66h-2.31Z"/><path class="cls-1" d="M490.45,533.06h2.2v2.66c.73-1.77,2.5-3,5.22-3,3.51,0,5.73,2.38,5.73,6.13v9.86h-2.32v-9.53c0-2.65-1.19-4.45-4-4.45-2.57,0-4.52,1.56-4.52,4.79v9.19h-2.32Z"/><path class="cls-1" d="M507.63,542.25v-2.5c0-4.25,2.42-7,6.81-7s6.62,3,6.62,6.8v2.32h-11.2v.55c0,2.72,1.41,4.91,4.67,4.91a4.13,4.13,0,0,0,4.3-3h2.08c-.52,2.81-3.11,4.79-6.38,4.79C510.47,549.05,507.63,546.46,507.63,542.25Zm2.23-2.2h9v-.73c0-2.78-1.41-4.85-4.46-4.85-3.36,0-4.58,2.22-4.58,5.09Z"/><path class="cls-1" d="M525.31,533.06h2.16v3.6c.58-2.41,2.26-3.69,5.1-3.69h.37v2.17h-.46c-3,0-4.85,2-4.85,5.89v7.66h-2.32Z"/><rect class="cls-5" x="73.5" y="468.56" width="106.16" height="79.62"/><rect class="cls-5" x="90.91" y="485.98" width="106.16" height="79.62"/><rect class="cls-5" x="108.33" y="503.39" width="106.16" height="79.62"/><path class="cls-6" d="M83,603.5H76.46v-2H91.9v2H85.37v19.38H83Z"/><path class="cls-6" d="M91.72,616.44v-2.5c0-4.24,2.41-7.05,6.8-7.05s6.63,3,6.63,6.81V616H94v.54c0,2.72,1.4,4.92,4.67,4.92a4.14,4.14,0,0,0,4.3-3H105c-.51,2.8-3.11,4.79-6.37,4.79C94.56,623.25,91.72,620.65,91.72,616.44ZM94,614.25h9v-.74c0-2.77-1.4-4.85-4.46-4.85-3.35,0-4.57,2.23-4.57,5.1Z"/><path class="cls-6" d="M108.66,618.33v-.15h2.1v.09c0,2,1.84,3.24,4.4,3.24,2.41,0,4.15-1,4.15-3a2.19,2.19,0,0,0-2-2.17l-4.64-1.07c-2.32-.52-3.66-1.92-3.66-4,0-2.93,2.47-4.46,5.92-4.46,3.26,0,5.79,2,5.79,4.88v.16h-2.1v-.1c0-1.92-1.41-3.2-3.72-3.2s-3.76.92-3.76,2.66a1.9,1.9,0,0,0,1.65,2l4.79,1.13c2.41.58,3.85,1.77,3.85,4,0,2.77-2.69,4.79-6.35,4.79S108.66,621.36,108.66,618.33Z"/><path class="cls-6" d="M130.63,622.88c-3,0-4.24-1.49-4.24-4.15v-9.58h-2.65v-1.89h2.65v-4.49h2.32v4.49h4v1.89h-4v9.58c0,1.59.58,2.26,2.32,2.26h1.56v1.89Z"/><path class="cls-6" d="M143.51,601.52h2.38V620.9h11v2H143.51Z"/><path class="cls-6" d="M159.23,616.44v-2.5c0-4.24,2.41-7.05,6.81-7.05s6.62,3,6.62,6.81V616h-11.2v.54c0,2.72,1.41,4.92,4.67,4.92a4.14,4.14,0,0,0,4.3-3h2.08c-.52,2.8-3.11,4.79-6.38,4.79C162.07,623.25,159.23,620.65,159.23,616.44Zm2.23-2.19h9v-.74c0-2.77-1.4-4.85-4.45-4.85-3.36,0-4.58,2.23-4.58,5.1Z"/><path class="cls-6" d="M183.1,622.88h-2.44l-5.74-15.62h2.29l4.67,13.3,4.67-13.3h2.29Z"/><path class="cls-6" d="M191,616.44v-2.5c0-4.24,2.41-7.05,6.8-7.05s6.62,3,6.62,6.81V616H193.2v.54c0,2.72,1.41,4.92,4.67,4.92a4.15,4.15,0,0,0,4.31-3h2.07c-.52,2.8-3.11,4.79-6.38,4.79C193.81,623.25,191,620.65,191,616.44Zm2.22-2.19h9v-.74c0-2.77-1.41-4.85-4.46-4.85-3.36,0-4.58,2.23-4.58,5.1Z"/><path class="cls-6" d="M208.8,600.6h2.32v22.28H208.8Z"/><path class="cls-6" d="M215.49,618.33v-.15h2.1v.09c0,2,1.83,3.24,4.4,3.24,2.41,0,4.15-1,4.15-3a2.2,2.2,0,0,0-2-2.17l-4.64-1.07c-2.32-.52-3.66-1.92-3.66-4,0-2.93,2.47-4.46,5.92-4.46,3.27,0,5.8,2,5.8,4.88v.16h-2.1v-.1c0-1.92-1.41-3.2-3.73-3.2-2.16,0-3.75.92-3.75,2.66a1.9,1.9,0,0,0,1.65,2l4.79,1.13c2.41.58,3.84,1.77,3.84,4,0,2.77-2.68,4.79-6.34,4.79S215.49,621.36,215.49,618.33Z"/><rect class="cls-8" x="673.66" y="468.56" width="235" height="140.42"/><path class="cls-3" d="M842.54,561.43h-2.26V544.65l-5.89,11.62h-2.26l-5.89-11.62v16.78H824V540.07h2.23l7,14.1,7-14.1h2.23Z"/><path class="cls-3" d="M847,555v-2.5c0-4.24,2.41-7,6.8-7s6.63,3,6.63,6.81v2.31h-11.2v.55c0,2.72,1.4,4.92,4.67,4.92a4.14,4.14,0,0,0,4.3-3h2.07c-.52,2.8-3.11,4.79-6.37,4.79C849.87,561.8,847,559.2,847,555Zm2.23-2.2h9v-.73c0-2.78-1.4-4.85-4.46-4.85-3.35,0-4.57,2.23-4.57,5.1Z"/><path class="cls-3" d="M875.2,561.43v-1.95c-.67,1.1-2.78,2.32-5.37,2.32-3.7,0-5.92-2.08-5.92-4.92,0-3,2.47-4.88,6.19-4.88a6.89,6.89,0,0,1,5,2v-2.9a3.62,3.62,0,0,0-3.91-3.78,4,4,0,0,0-3.91,2.35h-2.13a5.91,5.91,0,0,1,6.07-4.18c3.88,0,6.2,2.53,6.2,5.61v10.38Zm-.09-4.58c0-2-2.32-3.32-4.67-3.32-2.6,0-4.34,1.22-4.34,3.38s1.8,3.39,4.21,3.39S875.11,558.87,875.11,556.85Z"/><path class="cls-3" d="M882.19,545.81h2.2v2.65c.73-1.77,2.5-3,5.22-3,3.5,0,5.73,2.38,5.73,6.13v9.86H893v-9.52c0-2.66-1.19-4.46-4-4.46-2.56,0-4.51,1.56-4.51,4.8v9.18h-2.32Z"/><path class="cls-3" d="M794.53,573.07h8.82c4.7,0,7.17,3,7.17,6.8a6.48,6.48,0,0,1-4.61,6.38l4.64,8.18h-2.72l-4.33-7.81h-6.59v7.81h-2.38ZM803,584.73c3.42,0,5.1-2.08,5.1-4.86S806.37,575,803,575h-6.13v9.74Z"/><path class="cls-3" d="M813.85,588v-2.5c0-4.24,2.41-7,6.8-7s6.63,3,6.63,6.81v2.31h-11.2v.55c0,2.72,1.4,4.92,4.67,4.92a4.14,4.14,0,0,0,4.3-3h2.07c-.51,2.8-3.11,4.79-6.37,4.79C816.69,594.8,813.85,592.2,813.85,588Zm2.23-2.2h9v-.73c0-2.78-1.4-4.85-4.46-4.85-3.35,0-4.57,2.23-4.57,5.1Z"/><path class="cls-3" d="M846.72,594.43h-2.2l-4.15-13.18-4.15,13.18H834l-4.27-15.62H832l3.3,12.84,4-12.84h2.2l4,12.84,3.3-12.84H851Z"/><path class="cls-3" d="M864.42,594.43v-1.95c-.67,1.1-2.77,2.32-5.37,2.32-3.69,0-5.92-2.08-5.92-4.92,0-3,2.47-4.88,6.2-4.88a6.84,6.84,0,0,1,5,2v-2.9a3.62,3.62,0,0,0-3.9-3.78,4,4,0,0,0-3.91,2.35h-2.14a5.92,5.92,0,0,1,6.08-4.18c3.87,0,6.19,2.53,6.19,5.61v10.38Zm-.09-4.58c0-2-2.32-3.32-4.67-3.32-2.59,0-4.33,1.22-4.33,3.38s1.8,3.39,4.21,3.39S864.33,591.87,864.33,589.85Z"/><path class="cls-3" d="M871.41,578.81h2.17v3.6c.58-2.41,2.26-3.7,5.1-3.7H879v2.17h-.45c-3,0-4.86,2-4.86,5.89v7.66h-2.32Z"/><path class="cls-3" d="M895.19,572.15v22.28H893V592a5.83,5.83,0,0,1-5.28,2.81c-4.12,0-6.53-3.09-6.53-7v-2.38c0-4.06,2.54-7,6.47-7a5.86,5.86,0,0,1,5.22,2.68v-9ZM883.5,587.72c0,2.87,1.37,5.18,4.61,5.18,3.08,0,4.76-2.35,4.76-5.37v-2a4.83,4.83,0,0,0-4.79-5.19c-3,0-4.58,2.32-4.58,5.19Z"/><polygon class="cls-7" points="281.05 519.56 264.12 519.56 278.06 533.49 239.99 533.49 239.99 545.49 278.06 545.49 264.12 559.43 281.05 559.43 300.99 539.49 281.05 519.56"/><polygon class="cls-7" points="628.93 519.56 612.01 519.56 625.95 533.49 587.88 533.49 587.88 545.49 625.95 545.49 612.01 559.43 628.93 559.43 648.87 539.49 628.93 519.56"/><path class="cls-9" d="M673.66,584.18c0-53.14,124.36-82.47,235-82.47"/><line class="cls-10" x1="908.66" y1="525.17" x2="673.66" y2="525.17"/><polyline class="cls-11" points="908.66 608.98 673.66 608.98 673.66 468.56"/><path class="cls-12" d="M445.58,495.79c0-126.2,345.58-141.8,345.58-268"/></svg>